<svg width="12" height="18" viewBox="0 0 12 18" fill="none" xmlns="http://www.w3.org/2000/svg">
<path d="M5.99996 0.402588C2.77496 0.402588 0.166626 3.01092 0.166626 6.23592C0.166626 10.6109 5.99996 17.0693 5.99996 17.0693C5.99996 17.0693 11.8333 10.6109 11.8333 6.23592C11.8333 3.01092 9.22496 0.402588 5.99996 0.402588ZM5.99996 8.31925C5.44743 8.31925 4.91752 8.09976 4.52682 7.70906C4.13612 7.31836 3.91663 6.78846 3.91663 6.23592C3.91663 5.68339 4.13612 5.15348 4.52682 4.76278C4.91752 4.37208 5.44743 4.15259 5.99996 4.15259C6.55249 4.15259 7.0824 4.37208 7.4731 4.76278C7.8638 5.15348 8.08329 5.68339 8.08329 6.23592C8.08329 6.78846 7.8638 7.31836 7.4731 7.70906C7.0824 8.09976 6.55249 8.31925 5.99996 8.31925Z" fill="black"/>
</svg>
