<?xml version="1.0" standalone="no"?>
<!DOCTYPE svg PUBLIC "-//W3C//DTD SVG 20010904//EN"
 "http://www.w3.org/TR/2001/REC-SVG-20010904/DTD/svg10.dtd">
<svg version="1.0" xmlns="http://www.w3.org/2000/svg"
 width="512.000000pt" height="512.000000pt" viewBox="0 0 512.000000 512.000000"
 preserveAspectRatio="xMidYMid meet">

<g transform="translate(0.000000,512.000000) scale(0.100000,-0.100000)"
fill="#2C2C2C" stroke="none">
<path d="M83 4789 c-44 -22 -83 -82 -83 -129 0 -48 39 -108 84 -129 40 -20 60
-21 368 -21 l325 0 362 -1268 362 -1267 -48 -100 -48 -100 0 -115 c0 -109 2
-119 32 -183 38 -80 116 -166 188 -207 84 -48 156 -60 380 -61 191 0 198 -1
148 -14 -178 -48 -305 -188 -336 -370 -49 -285 223 -557 508 -508 197 34 344
181 378 378 37 218 -111 439 -336 500 -46 12 28 14 648 14 620 0 694 -2 648
-14 -178 -48 -305 -188 -336 -370 -49 -285 223 -557 508 -508 197 34 344 181
378 378 37 218 -111 439 -336 500 -48 13 -31 14 232 14 266 1 287 2 327 22 45
21 84 81 84 129 0 48 -39 108 -84 129 -42 21 -50 21 -1338 21 l-1295 0 -33 23
c-79 53 -94 120 -48 220 l27 57 1322 0 c1298 0 1323 0 1364 20 22 11 48 32 57
48 16 27 614 2102 625 2169 9 51 -29 117 -81 142 -42 21 -44 21 -1954 21
l-1911 0 -10 38 c-82 299 -142 486 -162 509 -48 52 -58 53 -481 53 -378 0
-395 -1 -435 -21z m4687 -884 c0 -4 -483 -1699 -506 -1778 -5 -16 -73 -17
-1249 -17 -1176 0 -1244 1 -1249 18 -23 78 -506 1773 -506 1777 0 3 790 5
1755 5 965 0 1755 -2 1755 -5z m-2423 -3023 c43 -30 66 -85 60 -138 -9 -84
-80 -141 -163 -131 -192 21 -166 310 27 294 26 -2 60 -13 76 -25z m1510 0 c43
-30 66 -85 60 -138 -9 -84 -80 -141 -163 -131 -192 21 -166 310 27 294 26 -2
60 -13 76 -25z"/>
</g>
</svg>
